<?xml version="1.0" encoding="UTF-8" standalone="no"?>
<svg
   xmlns:dc="http://purl.org/dc/elements/1.1/"
   xmlns:cc="http://creativecommons.org/ns#"
   xmlns:rdf="http://www.w3.org/1999/02/22-rdf-syntax-ns#"
   xmlns:svg="http://www.w3.org/2000/svg"
   xmlns="http://www.w3.org/2000/svg"
   id="svg16"
   version="1.1"
   viewBox="0 0 100 100"
   height="100px"
   width="100px">
  <metadata
     id="metadata20">
    <rdf:RDF>
      <cc:Work
         rdf:about="">
        <dc:format>image/svg+xml</dc:format>
        <dc:type
           rdf:resource="http://purl.org/dc/dcmitype/StillImage" />
      </cc:Work>
    </rdf:RDF>
  </metadata>
  <!-- Generator: Sketch 51.2 (57519) - http://www.bohemiancoding.com/sketch -->
  <title
     id="title2">KO_icon_Round</title>
  <desc
     id="desc4">Created with Sketch.</desc>
  <defs
     id="defs6" />
  <g
     fill-rule="evenodd"
     fill="none"
     stroke-width="1"
     stroke="none"
     id="KO_icon_Round">
    <g
       fill-rule="nonzero"
       id="Group">
      <rect
         rx="50"
         height="100"
         width="100"
         y="0"
         x="0"
         fill="#132CC4"
         id="Rectangle-path" />
      <polygon
         points="26.7207031 24.2890625 28.7929687 24.2890625 28.7929687 29.321875 28.8421875 29.321875 33.7105469 24.2890625 36.50625 24.2890625 31.0625 29.6671875 36.8679687 35.9335938 33.9570312 35.9335938 28.8417969 30.0949219 28.7925781 30.0949219 28.7925781 35.9335938 26.7203125 35.9335938 26.7203125 24.2890625"
         fill="#FFFFFF"
         id="Shape" />
      <path
         fill="#FFFFFF"
         id="path10"
         d="M63.3191406,70.6074219 C63.3191406,69.6753906 63.475,68.8335938 63.7878906,68.0824219 C64.1003906,67.3316406 64.5332031,66.6929688 65.0871094,66.1667969 C65.640625,65.6402344 66.2984375,65.2347656 67.0609375,64.9496094 C67.8226563,64.6648437 68.653125,64.521875 69.5523438,64.521875 C70.4621094,64.521875 71.3011719,64.6648438 72.0683594,64.9496094 C72.8359375,65.2347656 73.4992188,65.640625 74.0589844,66.1667969 C74.6179688,66.6933594 75.0535156,67.3316406 75.3664063,68.0824219 C75.6789063,68.8335938 75.8347656,69.6753906 75.8347656,70.6074219 C75.8347656,71.5171875 75.6789063,72.3480469 75.3664063,73.0988281 C75.0535156,73.85 74.6179688,74.496875 74.0589844,75.0398437 C73.4992188,75.5824219 72.8359375,76.0046875 72.0683594,76.3058594 C71.3007813,76.6070313 70.4621094,76.7582031 69.5523438,76.7582031 C68.653125,76.7582031 67.8226563,76.6070312 67.0609375,76.3058594 C66.2984375,76.0046875 65.640625,75.5820312 65.0871094,75.0398437 C64.5332031,74.496875 64.1003906,73.85 63.7878906,73.0988281 C63.475,72.3480469 63.3191406,71.5171875 63.3191406,70.6074219 Z M65.5722656,70.6074219 C65.5722656,71.2324219 65.6679688,71.8050781 65.8597656,72.3257813 C66.0515625,72.8464844 66.3253906,73.2988281 66.6816406,73.6828125 C67.0378906,74.0667969 67.4601563,74.3652344 67.9480469,74.5789063 C68.4359375,74.7929688 68.9761719,74.8996094 69.5679688,74.8996094 C70.1597656,74.8996094 70.7027344,74.7929688 71.1964844,74.5789063 C71.6898438,74.3652344 72.1144531,74.0664062 72.4710938,73.6828125 C72.8273438,73.2992187 73.1011719,72.8464844 73.2929688,72.3257813 C73.4847656,71.8050781 73.5808594,71.2320312 73.5808594,70.6074219 C73.5808594,70.0042969 73.4847656,69.4449219 73.2929688,68.9296875 C73.1011719,68.4144531 72.8296875,67.9648438 72.4789063,67.5808594 C72.128125,67.1976563 71.7058594,66.8960938 71.2128906,66.6765625 C70.7191406,66.4574219 70.1707031,66.3476562 69.5679688,66.3476562 C68.9648438,66.3476562 68.4195313,66.4574219 67.9316406,66.6765625 C67.44375,66.8960938 67.0246094,67.1976563 66.6734375,67.5808594 C66.3226563,67.9648438 66.0511719,68.4144531 65.859375,68.9296875 C65.6675781,69.4449219 65.5722656,70.0042969 65.5722656,70.6074219 Z" />
      <polygon
         points="45.7304688 61.940625 34.3253906 61.940625 34.3253906 60.2753906 44.065625 60.2753906 44.065625 49.9964844 53.6105469 49.9964844 53.6105469 40.0113281 64.86875 40.0113281 64.86875 41.6761719 55.2757812 41.6761719 55.2757812 51.6617187 45.7304688 51.6617187"
         fill="#FFFFFF"
         id="polygon12" />
    </g>
  </g>
</svg>
